<svg width="12" height="12" viewBox="0 0 12 12" fill="none" xmlns="http://www.w3.org/2000/svg">
  <path d="M6 3.81817C4.79454 3.81817 3.81819 4.79454 3.81819 5.99997C3.81819 7.20541 4.79454 8.18181 6 8.18181C7.20546 8.18181 8.18181 7.20544 8.18181 6C8.18181 4.79456 7.20544 3.81817 6 3.81817ZM10.8764 5.45453C10.6254 3.17999 8.81999 1.37454 6.54544 1.12364V0H5.45453V1.12364C3.17999 1.37454 1.37454 3.17999 1.12364 5.45453H0V6.54544H1.12364C1.37454 8.81999 3.18001 10.6254 5.45455 10.8764V12H6.54544V10.8764C8.81999 10.6254 10.6254 8.81999 10.8764 6.54544H12V5.45453H10.8764ZM6 9.81817C3.89183 9.81817 2.18183 8.10817 2.18183 6C2.18183 3.89183 3.89183 2.18183 6 2.18183C8.10817 2.18183 9.81817 3.8918 9.81817 6C9.81817 8.1082 8.10817 9.81817 6 9.81817Z" fill="currentColor"/>
</svg>
